<?xml version="1.0" encoding="UTF-8" standalone="no"?><!-- Generator: Gravit.io --><svg xmlns="http://www.w3.org/2000/svg" xmlns:xlink="http://www.w3.org/1999/xlink" style="isolation:isolate" viewBox="0 0 600 600" width="600pt" height="600pt"><defs><clipPath id="_clipPath_LhpWfUdze1ugng8qGVQDaEhDNCUwwhwL"><rect width="600" height="600"/></clipPath></defs><g clip-path="url(#_clipPath_LhpWfUdze1ugng8qGVQDaEhDNCUwwhwL)"><rect x="0" y="0" width="600" height="600" transform="matrix(1,0,0,1,0,0)" fill="rgb(196,52,36)"/><g><g><mask id="_mask_zNQ4ubXwnIaM3enDFgvioFcDcNoMqz3s" x="-200%" y="-200%" width="400%" height="400%"><rect x="-200%" y="-200%" width="400%" height="400%" style="fill:white;"/><path d=" M 425.839 311.17 L 363.045 248.369 L 234.193 377.171 L 104.86 247.826 L 42.157 311.17 L 233.998 503.011 L 425.839 311.17 Z " fill-rule="evenodd" fill="black" stroke="none"/></mask><path d=" M 425.839 311.17 L 363.045 248.369 L 234.193 377.171 L 104.86 247.826 L 42.157 311.17 L 233.998 503.011 L 425.839 311.17 Z " fill-rule="evenodd" fill="none"/><path d=" M 425.839 311.17 L 363.045 248.369 L 234.193 377.171 L 104.86 247.826 L 42.157 311.17 L 233.998 503.011 L 425.839 311.17 Z " fill-rule="evenodd" fill="none" mask="url(#_mask_zNQ4ubXwnIaM3enDFgvioFcDcNoMqz3s)" vector-effect="non-scaling-stroke" stroke-width="33.321" stroke="rgb(255,255,255)" stroke-linejoin="miter" stroke-linecap="square" stroke-miterlimit="1.5"/></g><g><mask id="_mask_wigyQNeseJOWEbMT8EXP4Y8AiDHfjwBh" x="-200%" y="-200%" width="400%" height="400%"><rect x="-200%" y="-200%" width="400%" height="400%" style="fill:white;"/><path d=" M 169.161 287.83 L 231.955 350.631 L 360.807 221.829 L 490.14 351.174 L 552.843 287.83 L 361.002 95.989 L 169.161 287.83 Z " fill-rule="evenodd" fill="black" stroke="none"/></mask><path d=" M 169.161 287.83 L 231.955 350.631 L 360.807 221.829 L 490.14 351.174 L 552.843 287.83 L 361.002 95.989 L 169.161 287.83 Z " fill-rule="evenodd" fill="none"/><path d=" M 169.161 287.83 L 231.955 350.631 L 360.807 221.829 L 490.14 351.174 L 552.843 287.83 L 361.002 95.989 L 169.161 287.83 Z " fill-rule="evenodd" fill="none" mask="url(#_mask_wigyQNeseJOWEbMT8EXP4Y8AiDHfjwBh)" vector-effect="non-scaling-stroke" stroke-width="33.321" stroke="rgb(255,255,255)" stroke-linejoin="miter" stroke-linecap="square" stroke-miterlimit="1.5"/></g></g></g></svg>