<?xml version="1.0" encoding="UTF-8" standalone="no"?>
<!DOCTYPE svg PUBLIC "-//W3C//DTD SVG 1.1//EN" "http://www.w3.org/Graphics/SVG/1.1/DTD/svg11.dtd">
<svg version="1.1" xmlns="http://www.w3.org/2000/svg" xmlns:xlink="http://www.w3.org/1999/xlink" preserveAspectRatio="xMidYMid meet" viewBox="0 0 640 480" width="640" height="480"><defs><path d="M368.27 241.19C368.27 332.92 293.8 407.38 202.08 407.38C110.35 407.38 35.88 332.92 35.88 241.19C35.88 149.47 110.35 75 202.08 75C293.8 75 368.27 149.47 368.27 241.19Z" id="d3idbbpnm0"></path><clipPath id="clipd4D4qVdYn6"><use xlink:href="#d3idbbpnm0" opacity="1"></use></clipPath><path d="M584.12 241.19C584.12 332.92 509.65 407.38 417.92 407.38C326.2 407.38 251.73 332.92 251.73 241.19C251.73 149.47 326.2 75 417.92 75C509.65 75 584.12 149.47 584.12 241.19Z" id="a9VGdnco7"></path><clipPath id="clipb2TuOmawOw"><use xlink:href="#a9VGdnco7" opacity="1"></use></clipPath><path d="M533.45 134.79L470 395.65L427.55 241.19L368.27 407.38L251.73 75L202.08 241.19L149.38 75L84.53 349.62" id="q1ualYy2OI"></path></defs><g><g><g><g clip-path="url(#clipd4D4qVdYn6)"><use xlink:href="#d3idbbpnm0" opacity="1" fill-opacity="0" stroke="#ffffff" stroke-width="40" stroke-opacity="1"></use></g></g><g><g clip-path="url(#clipb2TuOmawOw)"><use xlink:href="#a9VGdnco7" opacity="1" fill-opacity="0" stroke="#ffffff" stroke-width="40" stroke-opacity="1"></use></g></g><g><g><use xlink:href="#q1ualYy2OI" opacity="1" fill-opacity="0" stroke="#ffffff" stroke-width="20" stroke-opacity="1"></use></g></g></g></g></svg>