<?xml version="1.0" encoding="UTF-8" standalone="no"?>
<!DOCTYPE svg PUBLIC "-//W3C//DTD SVG 1.1//EN" "http://www.w3.org/Graphics/SVG/1.1/DTD/svg11.dtd">
<svg version="1.1" xmlns="http://www.w3.org/2000/svg" xmlns:xlink="http://www.w3.org/1999/xlink" preserveAspectRatio="xMidYMid meet" viewBox="0 0 640 480" width="640" height="480"><defs><path d="M120 372.02L163.85 394.19L213.4 397.5L270 382.5L310 352.5L285.12 322.5L266.21 277.5L262.95 217.5L281.86 165L250 82.5L200 236.41L147.56 87.11L84.97 340.08L120 372.02Z" id="a1n21weZM8"></path><path d="M501.42 107.98L457.56 85.81L408.02 82.5L351.42 97.5L311.42 127.5L336.3 157.5L355.21 202.5L358.47 262.5L339.56 315L371.42 397.5L421.42 243.59L473.86 392.89L536.45 139.92L501.42 107.98Z" id="brBLJYMvd"></path><path d="M368.27 241.19C368.27 332.92 293.8 407.38 202.08 407.38C110.35 407.38 35.88 332.92 35.88 241.19C35.88 149.47 110.35 75 202.08 75C293.8 75 368.27 149.47 368.27 241.19Z" id="azQMGyZPM"></path><clipPath id="clipd8n1KfypeL"><use xlink:href="#azQMGyZPM" opacity="1"></use></clipPath><path d="M584.12 241.19C584.12 332.92 509.65 407.38 417.92 407.38C326.2 407.38 251.73 332.92 251.73 241.19C251.73 149.47 326.2 75 417.92 75C509.65 75 584.12 149.47 584.12 241.19Z" id="a2qV1GwPii"></path><clipPath id="clipb2tDlXiYfE"><use xlink:href="#a2qV1GwPii" opacity="1"></use></clipPath><path d="M533.45 134.79L470 395.65L427.55 241.19L368.27 407.38L251.73 75L202.08 241.19L149.38 75L84.53 349.62" id="bb05AbQ4"></path></defs><g><g><g><use xlink:href="#a1n21weZM8" opacity="1" fill="#ffffff" fill-opacity="0.5"></use><g><use xlink:href="#a1n21weZM8" opacity="1" fill-opacity="0" stroke="#874848" stroke-width="0" stroke-opacity="1"></use></g></g><g><use xlink:href="#brBLJYMvd" opacity="1" fill="#ffffff" fill-opacity="0.5"></use><g><use xlink:href="#brBLJYMvd" opacity="1" fill-opacity="0" stroke="#874848" stroke-width="0" stroke-opacity="1"></use></g></g><g><g clip-path="url(#clipd8n1KfypeL)"><use xlink:href="#azQMGyZPM" opacity="1" fill-opacity="0" stroke="#ffffff" stroke-width="40" stroke-opacity="1"></use></g></g><g><g clip-path="url(#clipb2tDlXiYfE)"><use xlink:href="#a2qV1GwPii" opacity="1" fill-opacity="0" stroke="#ffffff" stroke-width="40" stroke-opacity="1"></use></g></g><g><g><use xlink:href="#bb05AbQ4" opacity="1" fill-opacity="0" stroke="#ffffff" stroke-width="20" stroke-opacity="1"></use></g></g></g></g></svg>