<?xml version="1.0" encoding="UTF-8" standalone="no"?>
<!DOCTYPE svg PUBLIC "-//W3C//DTD SVG 1.1//EN" "http://www.w3.org/Graphics/SVG/1.1/DTD/svg11.dtd">
<svg width="100%" height="100%" viewBox="0 0 1957 540" version="1.1" xmlns="http://www.w3.org/2000/svg" xmlns:xlink="http://www.w3.org/1999/xlink" xml:space="preserve" xmlns:serif="http://www.serif.com/" style="fill-rule:evenodd;clip-rule:evenodd;stroke-linecap:square;stroke-miterlimit:1.5;">
    <g transform="matrix(1,0,0,1,-49.9769,-50.9769)">
        <g transform="matrix(0.911112,0.911112,-0.911112,0.911112,366.358,-165.473)">
            <path d="M381.616,149.819L289.542,149.814L289.505,338.7L99.868,338.691L100.338,431.097L381.616,431.097L381.616,149.819Z" style="fill:rgb(235,235,235);fill-opacity:0;stroke:white;stroke-width:12.93px;"/>
        </g>
        <g transform="matrix(-0.911112,-0.911112,0.911112,-0.911112,448.526,806.473)">
            <path d="M381.616,149.819L289.542,149.814L289.505,338.7L99.868,338.691L100.338,431.097L381.616,431.097L381.616,149.819Z" style="fill:rgb(235,235,235);fill-opacity:0;stroke:white;stroke-width:12.93px;"/>
        </g>
        <g transform="matrix(4.86126,0,0,4.86126,-3819.92,-1221.49)">
            <g transform="matrix(51.427,0,0,51.427,966.156,336.758)">
                <path d="M0.053,-0.38C0.053,-0.486 0.092,-0.578 0.169,-0.654C0.247,-0.73 0.34,-0.768 0.449,-0.768C0.556,-0.768 0.648,-0.73 0.725,-0.653C0.802,-0.576 0.841,-0.484 0.841,-0.376C0.841,-0.268 0.802,-0.176 0.725,-0.1C0.647,-0.024 0.553,0.014 0.443,0.014C0.346,0.014 0.258,-0.02 0.181,-0.087C0.095,-0.162 0.053,-0.26 0.053,-0.38ZM0.167,-0.379C0.167,-0.296 0.195,-0.227 0.251,-0.173C0.307,-0.12 0.371,-0.093 0.444,-0.093C0.523,-0.093 0.59,-0.12 0.645,-0.175C0.699,-0.23 0.726,-0.298 0.726,-0.377C0.726,-0.457 0.699,-0.525 0.646,-0.579C0.592,-0.634 0.526,-0.661 0.447,-0.661C0.369,-0.661 0.303,-0.634 0.249,-0.579C0.194,-0.525 0.167,-0.458 0.167,-0.379Z" style="fill:white;fill-rule:nonzero;stroke:white;stroke-opacity:0;stroke-width:0.05px;stroke-linecap:butt;stroke-linejoin:round;stroke-miterlimit:2;"/>
            </g>
            <g transform="matrix(51.427,0,0,51.427,1012.11,336.758)">
                <path d="M0.064,0L0.223,-0.811L0.481,-0.225L0.75,-0.811L0.892,0L0.775,0L0.703,-0.455L0.479,0.035L0.263,-0.456L0.182,0L0.064,0Z" style="fill:white;fill-rule:nonzero;stroke:white;stroke-opacity:0;stroke-width:0.05px;stroke-linecap:butt;stroke-linejoin:round;stroke-miterlimit:2;"/>
            </g>
            <g transform="matrix(51.427,0,0,51.427,1061.55,336.758)">
                <path d="M0.09,0L0.09,-0.805L0.64,-0.23L0.64,-0.754L0.754,-0.754L0.754,0.046L0.204,-0.528L0.204,0L0.09,0Z" style="fill:white;fill-rule:nonzero;stroke:white;stroke-opacity:0;stroke-width:0.05px;stroke-linecap:butt;stroke-linejoin:round;stroke-miterlimit:2;"/>
            </g>
            <g transform="matrix(51.427,0,0,51.427,1105.32,336.758)">
                <path d="M0.053,-0.38C0.053,-0.486 0.092,-0.578 0.169,-0.654C0.247,-0.73 0.34,-0.768 0.449,-0.768C0.556,-0.768 0.648,-0.73 0.725,-0.653C0.802,-0.576 0.841,-0.484 0.841,-0.376C0.841,-0.268 0.802,-0.176 0.725,-0.1C0.647,-0.024 0.553,0.014 0.443,0.014C0.346,0.014 0.258,-0.02 0.181,-0.087C0.095,-0.162 0.053,-0.26 0.053,-0.38ZM0.167,-0.379C0.167,-0.296 0.195,-0.227 0.251,-0.173C0.307,-0.12 0.371,-0.093 0.444,-0.093C0.523,-0.093 0.59,-0.12 0.645,-0.175C0.699,-0.23 0.726,-0.298 0.726,-0.377C0.726,-0.457 0.699,-0.525 0.646,-0.579C0.592,-0.634 0.526,-0.661 0.447,-0.661C0.369,-0.661 0.303,-0.634 0.249,-0.579C0.194,-0.525 0.167,-0.458 0.167,-0.379Z" style="fill:white;fill-rule:nonzero;stroke:white;stroke-opacity:0;stroke-width:0.05px;stroke-linecap:butt;stroke-linejoin:round;stroke-miterlimit:2;"/>
            </g>
            <g transform="matrix(51.427,0,0,51.427,1151.27,336.758)">
                <path d="M0.064,0L0.223,-0.811L0.481,-0.225L0.75,-0.811L0.892,0L0.775,0L0.703,-0.455L0.479,0.035L0.263,-0.456L0.182,0L0.064,0Z" style="fill:white;fill-rule:nonzero;stroke:white;stroke-opacity:0;stroke-width:0.05px;stroke-linecap:butt;stroke-linejoin:round;stroke-miterlimit:2;"/>
            </g>
        </g>
    </g>
</svg>
